<svg xmlns="http://www.w3.org/2000/svg" viewBox="0 0 410 404"><defs><linearGradient id="a" x1="6%" x2="235%" y1="0%" y2="100%"><stop offset="0%" stop-color="#41D1FF"/><stop offset="100%" stop-color="#BD34FE"/></linearGradient><linearGradient id="b" x1="194%" x2="-43%" y1="0%" y2="100%"><stop offset="0%" stop-color="#FFEA83"/><stop offset="8%" stop-color="#FFDD35"/><stop offset="100%" stop-color="#FFA800"/></linearGradient></defs><path fill="url(#a)" d="M399.6 73.7L215.9 401.6c-3.8 6.7-13.4 6.8-17.3.1L10.4 73.8a10 10 0 0 1 10.7-14.9l185.1 33.1c2.6.5 5.3.5 8 0l181.2-33.1a10 10 0 0 1 11 14.7Z"/><path fill="url(#b)" d="M292 0c-5 0-9.4 3.4-10.6 8.3l-31 142.7-44.7-8.2a11 11 0 0 0-12.6 13.5l29 124.4a11 11 0 0 0 8.3 8.1l24.7 5.7c5 1.2 10-1.7 11.4-6.6l69-275a11 11 0 0 0-11-12.9H292Z"/></svg>
